<svg width="260" height="267" viewBox="0 0 260 267" fill="none" xmlns="http://www.w3.org/2000/svg">
<g clip-path="url(#clip0_8_49)">
<path d="M13 263.744H169C172.448 263.744 175.754 262.372 178.192 259.929C180.63 257.487 182 254.174 182 250.72V245.627C181.997 238.339 180.439 231.137 177.433 224.501C174.426 217.865 170.04 211.949 164.567 207.149C167.496 205.112 170.2 202.972 172.194 201.244C173.15 200.409 173.911 199.374 174.422 198.212C174.934 197.049 175.184 195.788 175.154 194.518C175.124 193.247 174.816 191.999 174.25 190.862C173.684 189.725 172.876 188.726 171.882 187.938C165.967 183.184 156 173.177 156 159.549V95.1649C156.052 77.7234 149.213 60.97 136.977 48.5636C130.976 42.452 123.819 37.6008 115.925 34.2939C108.03 30.9871 99.5567 29.291 91 29.3048C73.6685 29.4197 57.0905 36.4188 44.9043 48.7663C32.7181 61.1137 25.9193 77.8007 26 95.1649V159.549C26 173.177 16.0333 183.184 10.1747 187.899C9.16721 188.683 8.34605 189.682 7.7704 190.822C7.19475 191.963 6.87896 193.218 6.8458 194.496C6.81264 195.774 7.06293 197.043 7.57863 198.212C8.09433 199.381 8.86259 200.421 9.828 201.257C12.2618 203.349 14.8001 205.315 17.433 207.149C11.96 211.949 7.57354 217.865 4.56707 224.501C1.5606 231.137 0.00351248 238.339 0 245.627V250.72C0 254.174 1.36964 257.487 3.80761 259.929C6.24559 262.372 9.55219 263.744 13 263.744ZM166.521 194.676C163.562 197.238 160.414 199.573 157.105 201.661C149.635 197.14 141.128 194.622 132.405 194.35C128.406 189.868 122.945 186.96 117 186.145V172.161L122.122 168.097C127.476 163.707 131.882 158.271 135.072 152.12C138.262 145.969 140.169 139.232 140.677 132.319C143.075 131.735 145.336 130.688 147.333 129.237V159.549C147.333 176.81 159.324 188.993 166.521 194.676ZM91 198.513C77.623 195.631 74.256 190.334 73.6667 189.188V179.051L74.802 179.949C79.4091 183.605 85.114 185.595 90.9913 185.595C96.8686 185.595 102.574 183.605 107.181 179.949L108.333 179.042V189.131C107.627 190.512 104.139 195.683 91 198.513ZM35.7283 99.2675C36.0048 99.106 36.3183 99.0192 36.6383 99.0157C36.9551 99.0174 37.2653 99.106 37.5353 99.2719C38.4954 99.9001 39.3073 100.731 39.9142 101.705C40.5212 102.68 40.9087 103.776 41.0497 104.916C41.3114 106.519 42.1966 107.954 43.5115 108.905C44.8263 109.856 46.4637 110.247 48.0653 109.991C56.017 108.788 82.732 103.283 92.8113 83.0739C93.1986 82.4185 93.79 81.9088 94.4947 81.6233C95.1994 81.3378 95.9783 81.2922 96.7114 81.4936C105.378 83.6209 126.083 89.7771 131.075 101.03C131.539 102.077 132.284 102.974 133.226 103.623C134.168 104.272 135.271 104.648 136.413 104.707C137.541 104.773 138.665 104.524 139.66 103.987C140.654 103.45 141.481 102.648 142.047 101.668C142.611 100.672 143.427 99.8425 144.413 99.2632C144.685 99.0967 144.997 99.0086 145.316 99.0086C145.635 99.0086 145.948 99.0967 146.22 99.2632C146.552 99.4555 146.826 99.7342 147.012 100.07C147.199 100.405 147.292 100.785 147.281 101.169C147.281 112.062 147.281 114.992 144.135 120.107C143.468 121.104 142.607 121.958 141.604 122.617C140.602 123.276 139.478 123.728 138.298 123.944C136.589 124.337 135.053 125.276 133.921 126.618C132.79 127.961 132.124 129.636 132.024 131.39C131.653 137.156 130.105 142.784 127.475 147.927C124.846 153.069 121.19 157.616 116.736 161.285L101.794 173.151C98.6881 175.517 94.8935 176.798 90.9913 176.798C87.0892 176.798 83.2946 175.517 80.1883 173.151L65.2513 161.285C60.7922 157.619 57.1315 153.075 54.4959 147.934C51.8603 142.794 50.3058 137.166 49.9287 131.399C49.8318 129.641 49.166 127.964 48.0323 126.62C46.8985 125.275 45.3585 124.338 43.6453 123.949C42.4673 123.733 41.3445 123.282 40.3434 122.624C39.3423 121.965 38.4832 121.112 37.817 120.115C34.6667 114.997 34.6667 112.066 34.6667 101.173C34.6558 100.789 34.7487 100.41 34.9356 100.074C35.1224 99.7385 35.3964 99.4599 35.7283 99.2675ZM66.8633 194.641C69.7054 198.57 73.5909 201.622 78.078 203.45C73.9986 206.195 70.7908 210.056 68.835 214.572C64.2027 212.306 57.0093 207.565 56.381 199.738C59.1938 196.892 62.8918 195.094 66.8633 194.641ZM115.137 194.641C119.106 195.098 122.802 196.894 125.619 199.733C124.986 207.509 117.789 212.276 113.156 214.555C111.2 210.046 107.995 206.192 103.922 203.45C108.409 201.622 112.295 198.57 115.137 194.641ZM91 37.9878C98.4095 37.9772 105.747 39.4465 112.583 42.3097C119.419 45.1729 125.617 49.3726 130.815 54.6633C140.316 64.3188 146.091 77.0381 147.112 90.5586C144.69 90.1081 142.186 90.5441 140.058 91.7872C138.985 92.418 137.993 93.1792 137.107 94.0534C129.133 82.1057 110.067 75.8453 98.8 73.0798C96.1544 72.4064 93.3594 72.6465 90.8668 73.7612C88.3741 74.876 86.3295 76.8002 85.0633 79.223C77.6013 94.188 57.7633 99.4282 49.023 101.039C47.9124 97.1679 45.3793 93.8622 41.9337 91.7872C39.8109 90.554 37.3192 90.1184 34.905 90.5586C35.96 76.3404 42.3152 63.0402 52.7078 53.3006C63.1003 43.5609 76.7697 38.0946 91 37.9878ZM15.535 194.715C22.6763 188.993 34.6667 176.81 34.6667 159.549V129.25C36.6589 130.696 38.914 131.739 41.3053 132.319C41.815 139.232 43.7232 145.969 46.9139 152.12C50.1046 158.27 54.511 163.707 59.865 168.097L65 172.169V186.145C59.055 186.964 53.5955 189.878 49.5993 194.363C40.876 194.635 32.3696 197.153 24.8993 201.674C21.6073 199.594 18.4769 197.268 15.535 194.715ZM8.66667 245.627C8.68895 234.859 12.7704 224.497 20.0938 216.616C27.4172 208.734 37.4419 203.915 48.1607 203.124C51.246 218.428 69.3333 224.219 70.174 224.48C70.5872 224.605 71.0163 224.669 71.448 224.671C72.4154 224.671 73.3551 224.348 74.1176 223.751C74.8802 223.155 75.4216 222.32 75.6557 221.38C76.5668 217.796 78.5054 214.558 81.2322 212.065C83.959 209.573 87.3546 207.934 91 207.353C94.6415 207.943 98.0321 209.584 100.757 212.076C103.481 214.567 105.422 217.801 106.34 221.38C106.574 222.32 107.116 223.155 107.878 223.751C108.641 224.348 109.58 224.671 110.548 224.671C110.979 224.669 111.409 224.605 111.822 224.48C112.662 224.219 130.75 218.428 133.835 203.12C144.557 203.906 154.586 208.724 161.911 216.607C169.236 224.49 173.316 234.856 173.333 245.627V250.72C173.333 251.871 172.877 252.975 172.064 253.789C171.251 254.604 170.149 255.061 169 255.061H13C11.8507 255.061 10.7485 254.604 9.93587 253.789C9.12321 252.975 8.66667 251.871 8.66667 250.72V245.627Z" fill="white"/>
<path fill-rule="evenodd" clip-rule="evenodd" d="M90.9974 27.6768C99.7702 27.6626 108.458 29.4015 116.552 32.7919C124.645 36.182 131.982 41.1553 138.134 47.4206C150.671 60.1328 157.678 77.2988 157.625 95.1697V159.549C157.625 172.383 167.05 181.966 172.895 186.665C174.074 187.602 175.033 188.787 175.704 190.136C176.376 191.487 176.743 192.97 176.779 194.479C176.814 195.989 176.517 197.487 175.909 198.868C175.301 200.25 174.397 201.48 173.261 202.472L173.257 202.475C171.606 203.907 169.485 205.609 167.153 207.306C172.097 211.995 176.093 217.605 178.913 223.828C182.015 230.675 183.621 238.107 183.625 245.626V250.72C183.625 254.606 182.084 258.332 179.341 261.08C176.599 263.828 172.879 265.372 169 265.372H13C9.12121 265.372 5.40128 263.828 2.65856 261.08C-0.0841556 258.332 -1.625 254.606 -1.625 250.72V245.627C-1.62138 238.108 -0.0147468 230.675 3.08737 223.828C5.90701 217.604 9.90306 211.994 14.8481 207.305C12.7587 205.783 10.731 204.178 8.77003 202.493L8.76552 202.489C7.61819 201.496 6.70516 200.26 6.09228 198.87C5.4794 197.481 5.18194 195.972 5.22135 194.453C5.26076 192.935 5.63606 191.444 6.32018 190.088C7.00217 188.736 7.9741 187.553 9.16627 186.622C14.9554 181.961 24.375 172.38 24.375 159.549V95.1684C24.2933 77.3745 31.2609 60.2747 43.7488 47.6216C56.2376 34.9675 73.2274 27.7945 90.9893 27.6768L90.9974 27.6768ZM91.0067 30.9329C74.1071 31.0459 57.9424 37.8711 46.0598 49.911C34.1762 61.9518 27.5463 78.2243 27.625 95.1573L27.625 95.1649L27.625 159.549C27.625 173.967 17.1213 184.396 11.1923 189.168L11.1719 189.184C10.3543 189.821 9.68779 190.631 9.22062 191.557C8.75345 192.483 8.49716 193.501 8.47025 194.538C8.44334 195.575 8.64647 196.605 9.06499 197.554C9.48313 198.502 10.1059 199.346 10.8883 200.023C13.2797 202.078 15.7736 204.01 18.3605 205.812L20.0683 207.001L18.5034 208.374C13.2045 213.021 8.95759 218.749 6.04677 225.174C3.13606 231.598 1.62851 238.572 1.625 245.627V245.627V250.72C1.625 253.742 2.82343 256.641 4.95666 258.778C7.08989 260.915 9.98316 262.116 13 262.116H169C172.017 262.116 174.91 260.915 177.043 258.778C179.177 256.641 180.375 253.742 180.375 250.72V245.628C180.372 238.572 178.864 231.598 175.953 225.174C173.042 218.749 168.795 213.021 163.497 208.374L161.93 207L163.641 205.811C166.52 203.809 169.178 201.705 171.129 200.014C171.904 199.337 172.521 198.497 172.935 197.555C173.351 196.611 173.554 195.587 173.529 194.556C173.505 193.525 173.255 192.511 172.796 191.588C172.336 190.665 171.68 189.854 170.873 189.214L170.865 189.208C164.88 184.397 154.375 173.967 154.375 159.549V95.1649L154.375 95.16C154.426 78.1486 147.755 61.8084 135.821 49.7079L135.818 49.7053C129.969 43.748 122.993 39.0193 115.298 35.796C107.604 32.5732 99.346 30.9199 91.0067 30.9329ZM111.956 43.8118C105.321 41.0327 98.1991 39.6062 91.0072 39.6158C77.1867 39.7208 63.9112 45.0303 53.8178 54.4895C44.1915 63.5111 38.1314 75.6777 36.7012 88.7635C38.8121 88.7542 40.9012 89.3054 42.7488 90.3788L42.7709 90.3917C46.1402 92.4207 48.7177 95.5175 50.1113 99.1696C54.434 98.2904 60.6992 96.6344 66.8154 93.673C73.6337 90.3716 80.1028 85.5284 83.6096 78.4954L83.6235 78.4677C85.0592 75.7204 87.3779 73.5386 90.2044 72.2746C93.0287 71.0115 96.1954 70.7387 99.1934 71.5002C104.884 72.8972 112.579 75.1846 119.884 78.652C126.574 81.8277 133.09 86.0642 137.381 91.6478C137.97 91.1856 138.589 90.763 139.235 90.383L139.239 90.3806C141.093 89.298 143.193 88.744 145.313 88.7578C143.942 76.3422 138.437 64.7281 129.658 55.8064C124.612 50.6698 118.593 46.5915 111.956 43.8118ZM90.9977 36.3597C98.6232 36.3489 106.174 37.861 113.21 40.8076C120.245 43.7541 126.623 48.0757 131.972 53.5203C141.744 63.4502 147.683 76.531 148.733 90.4358L148.892 92.5453L146.816 92.1593C144.776 91.78 142.669 92.1471 140.876 93.1935C139.92 93.7561 139.037 94.4347 138.246 95.2139L136.847 96.5935L135.756 94.9583C132.009 89.3435 125.559 84.9489 118.493 81.5946C111.457 78.2549 103.989 76.0297 98.4133 74.6611L98.3999 74.6578C96.1086 74.0745 93.6879 74.2825 91.5291 75.2479C89.3748 76.2113 87.6069 77.873 86.5098 79.9651C82.5531 87.889 75.3766 93.1441 68.2296 96.6046C61.0644 100.074 53.7639 101.821 49.317 102.64L47.8682 102.907L47.4612 101.489C46.4653 98.0175 44.1954 95.0527 41.1077 93.1893C39.3214 92.155 37.2261 91.7902 35.1959 92.1603L33.1287 92.5372L33.2845 90.4379C34.3697 75.8121 40.9071 62.1305 51.5977 52.1116C62.2882 42.0927 76.3495 36.4697 90.9878 36.3598L90.9977 36.3597ZM96.2816 83.0637C95.8921 82.9567 95.4784 82.9809 95.104 83.1326C94.7445 83.2782 94.4405 83.5337 94.2347 83.8621C88.9557 94.3989 79.4006 101.019 70.3108 105.143C61.1948 109.279 52.3708 110.986 48.3141 111.6C46.2902 111.921 44.2216 111.427 42.5602 110.225C40.8969 109.021 39.7771 107.207 39.446 105.179L39.4409 105.147L39.437 105.116C39.325 104.211 39.0174 103.341 38.5355 102.567C38.06 101.803 37.4261 101.151 36.677 100.655C36.6656 100.649 36.6534 100.646 36.6408 100.644C36.6078 100.647 36.5758 100.657 36.5471 100.674L36.5418 100.677C36.4634 100.722 36.3987 100.788 36.3545 100.867C36.3104 100.947 36.2884 101.036 36.291 101.127L36.2917 101.15V101.173C36.2917 106.672 36.2957 109.987 36.6688 112.577C37.0246 115.047 37.7171 116.846 39.1837 119.234C39.7266 120.04 40.4239 120.729 41.2352 121.263C42.0546 121.802 42.9736 122.171 43.9378 122.347L43.9713 122.353L44.0045 122.361C46.0621 122.828 47.9118 123.954 49.2735 125.569C50.6333 127.181 51.4326 129.193 51.5507 131.3C51.9142 136.842 53.4085 142.25 55.9414 147.19C58.4733 152.129 61.989 156.495 66.2714 160.018L81.1847 171.864C84.0058 174.009 87.4498 175.17 90.9913 175.17C94.533 175.17 97.9772 174.009 100.798 171.864L115.715 160.019C119.993 156.492 123.503 152.124 126.029 147.184C128.557 142.242 130.045 136.832 130.402 131.29C130.523 129.186 131.322 127.179 132.68 125.568C134.038 123.956 135.882 122.829 137.935 122.358L137.97 122.35L138.005 122.343C138.971 122.166 139.892 121.796 140.713 121.256C141.526 120.722 142.224 120.031 142.769 119.225C144.233 116.84 144.924 115.042 145.28 112.573C145.652 109.983 145.656 106.668 145.656 101.169V101.146L145.657 101.123C145.66 101.032 145.638 100.942 145.593 100.863C145.549 100.784 145.485 100.718 145.406 100.673L145.372 100.653C145.355 100.643 145.336 100.637 145.316 100.637C145.296 100.637 145.277 100.642 145.26 100.653L145.235 100.668C144.495 101.102 143.883 101.724 143.46 102.471L143.453 102.484C142.736 103.725 141.689 104.741 140.43 105.42C139.172 106.099 137.75 106.415 136.324 106.333C134.884 106.257 133.494 105.783 132.306 104.965C131.116 104.146 130.176 103.013 129.59 101.692C127.352 96.6472 121.423 92.5061 114.585 89.3156C107.84 86.1685 100.613 84.1275 96.3246 83.0749L96.2816 83.0637ZM97.1176 79.9171C96.0478 79.6287 94.913 79.6977 93.8854 80.114C92.8504 80.5334 91.9817 81.282 91.413 82.2446L91.3835 82.2944L91.3577 82.3462C86.5511 91.9837 77.7282 98.2034 68.9701 102.177C60.2255 106.144 51.7205 107.792 47.8228 108.381L47.8098 108.383C46.6326 108.571 45.4291 108.284 44.4627 107.585C43.5038 106.891 42.8558 105.848 42.6579 104.68C42.4843 103.318 42.0187 102.009 41.2929 100.844C40.5609 99.668 39.5818 98.6664 38.4239 97.9088L38.4045 97.8961L38.3848 97.884C37.8616 97.5626 37.2606 97.3909 36.6469 97.3877L36.6206 97.3878C36.02 97.3943 35.4313 97.557 34.9122 97.8597C34.3279 98.1989 33.8457 98.6898 33.5166 99.2806C33.1912 99.8647 33.0274 100.525 33.0417 101.193V101.329C33.0416 106.637 33.0416 110.192 33.4521 113.042C33.8826 116.031 34.7614 118.252 36.4338 120.97L36.4497 120.996L36.4666 121.021C37.2537 122.199 38.2687 123.207 39.4516 123.985C40.624 124.756 41.9376 125.286 43.316 125.543C44.6728 125.858 45.8919 126.604 46.7911 127.67C47.6969 128.744 48.2287 130.085 48.3061 131.489L48.3071 131.505C48.6988 137.494 50.3132 143.339 53.0504 148.678C55.7877 154.017 59.5894 158.736 64.2205 162.544L79.1788 174.426L79.2048 174.447C82.5939 177.028 86.7339 178.426 90.9913 178.426C95.2487 178.426 99.3888 177.028 102.778 174.447L117.745 162.561L117.768 162.543C122.394 158.732 126.19 154.01 128.921 148.669C131.653 143.328 133.26 137.483 133.645 131.495L133.646 131.483C133.726 130.081 134.258 128.742 135.163 127.669C136.06 126.604 137.276 125.857 138.63 125.539C140.009 125.28 141.323 124.75 142.496 123.978C143.68 123.2 144.696 122.192 145.485 121.013L145.502 120.987L145.519 120.961C147.189 118.245 148.067 116.025 148.496 113.037C148.906 110.188 148.906 106.632 148.906 101.325V101.189C148.921 100.521 148.757 99.8603 148.431 99.2763C148.105 98.6901 147.628 98.2023 147.05 97.8634C146.526 97.5476 145.927 97.3806 145.316 97.3806C144.704 97.3806 144.103 97.5483 143.579 97.8655C142.354 98.588 141.34 99.62 140.637 100.858C140.222 101.574 139.617 102.161 138.889 102.554C138.159 102.947 137.335 103.13 136.507 103.082L136.498 103.082C135.656 103.037 134.842 102.761 134.147 102.282C133.452 101.803 132.902 101.141 132.559 100.369C129.805 94.1603 122.885 89.5964 115.957 86.3639C108.946 83.0926 101.499 80.9933 97.1176 79.9171ZM148.958 126.045V159.549C148.958 176.038 160.438 187.799 167.527 193.397L169.073 194.618L167.584 195.907C164.563 198.523 161.349 200.907 157.971 203.039L157.123 203.574L156.265 203.054C149.033 198.678 140.799 196.24 132.354 195.977L131.658 195.955L131.194 195.435C127.452 191.242 122.342 188.52 116.78 187.758L115.375 187.565V171.373L121.103 166.829C126.282 162.58 130.544 157.32 133.63 151.369C136.718 145.414 138.565 138.892 139.057 132.2L139.144 131.017L140.293 130.737C142.486 130.203 144.553 129.246 146.379 127.919L148.958 126.045ZM33.0417 126.059L35.6203 127.931C37.4411 129.254 39.5022 130.207 41.6878 130.737L42.8387 131.016L42.9259 132.199C43.4193 138.892 45.2668 145.414 48.3558 151.369C51.4428 157.32 55.7053 162.58 60.8842 166.829L66.625 171.382V187.564L65.2215 187.757C59.659 188.524 54.5507 191.25 50.8116 195.447L50.3471 195.968L49.6499 195.99C41.2055 196.253 32.971 198.691 25.7396 203.067L24.881 203.587L24.0325 203.051C20.6712 200.927 17.4749 198.552 14.4711 195.945L12.9955 194.665L14.5201 193.443C21.5622 187.801 33.0417 176.038 33.0417 159.549V126.059ZM142.201 133.589C141.558 140.318 139.629 146.865 136.514 152.871C133.222 159.217 128.676 164.827 123.151 169.357L123.131 169.374L118.625 172.948V184.762C124.176 185.826 129.26 188.618 133.144 192.749C141.567 193.122 149.775 195.525 157.072 199.75C159.465 198.196 161.77 196.509 163.974 194.696C156.582 188.464 145.708 176.369 145.708 159.549V132.152C144.587 132.737 143.413 133.218 142.201 133.589ZM36.2917 132.163V159.549C36.2917 176.374 25.4095 188.471 18.0708 194.729C20.2619 196.534 22.553 198.215 24.9332 199.763C32.2298 195.538 40.4372 193.135 48.86 192.762C52.7412 188.627 57.8233 185.831 63.375 184.763V172.957L58.8356 169.357C53.311 164.827 48.7643 159.217 45.472 152.87C42.3569 146.865 40.4265 140.319 39.7822 133.59C38.5762 133.222 37.4079 132.744 36.2917 132.163ZM72.0417 175.689L75.8094 178.672C80.1294 182.1 85.4803 183.967 90.9913 183.967C96.5023 183.967 101.852 182.101 106.172 178.673L106.177 178.669L109.958 175.692V189.524L109.779 189.874C108.803 191.782 104.846 197.196 91.3416 200.105L91 200.179L90.6583 200.105C76.9019 197.141 73.0756 191.593 72.2221 189.934L72.0417 189.583V175.689ZM106.708 182.323C102.098 185.506 96.6191 187.223 90.9913 187.223C85.3706 187.223 79.8983 185.51 75.2917 182.335V188.754C76.1048 190.041 79.5651 194.314 91.0001 196.847C102.383 194.326 105.856 190.075 106.708 188.703V182.323ZM114.378 192.915L115.322 193.023C119.658 193.523 123.695 195.485 126.772 198.586L127.299 199.118L127.239 199.866C126.882 204.255 124.671 207.732 122.033 210.36C119.404 212.98 116.275 214.834 113.873 216.016L112.345 216.768L111.666 215.204C109.833 210.98 106.831 207.37 103.016 204.801L100.48 203.094L103.31 201.941C107.516 200.229 111.157 197.368 113.821 193.686L114.378 192.915ZM67.6223 192.916L68.1792 193.686C70.8429 197.368 74.4844 200.229 78.6899 201.941L81.5203 203.094L78.9842 204.801C75.1628 207.373 72.1579 210.989 70.3258 215.22L69.6493 216.783L68.122 216.035C65.7193 214.86 62.5903 213.015 59.9606 210.395C57.3222 207.766 55.1155 204.282 54.7612 199.868L54.7014 199.123L55.2264 198.592C58.2997 195.483 62.3401 193.519 66.6794 193.023L67.6223 192.916ZM58.0846 200.354C58.5298 203.432 60.1469 205.988 62.2524 208.086C64.0573 209.885 66.176 211.298 68.0861 212.35C69.7693 209.054 72.1012 206.138 74.9368 203.775C71.5257 201.962 68.527 199.448 66.1423 196.388C63.1337 196.908 60.3359 198.285 58.0846 200.354ZM115.857 196.389C113.472 199.448 110.474 201.963 107.063 203.775C109.892 206.133 112.22 209.043 113.902 212.33C115.813 211.272 117.934 209.852 119.742 208.051C121.849 205.951 123.466 203.402 123.914 200.35C121.66 198.286 118.864 196.912 115.857 196.389ZM132.526 201.391L133.954 201.496C145.084 202.312 155.495 207.314 163.1 215.498C170.705 223.682 174.94 234.443 174.958 245.624V250.72C174.958 252.303 174.331 253.821 173.213 254.941C172.096 256.06 170.58 256.689 169 256.689H13C11.4198 256.689 9.90423 256.06 8.78682 254.941C7.66942 253.821 7.04167 252.303 7.04167 250.72V245.627L7.04167 245.624C7.0648 234.445 11.3019 223.688 18.9044 215.506C26.507 207.324 36.9139 202.322 48.0412 201.5L49.4699 201.395L49.7535 202.802C51.1769 209.862 56.0802 214.818 60.9189 218.094C65.7224 221.346 70.2653 222.803 70.649 222.923C70.909 223.001 71.1788 223.041 71.4503 223.043C72.0545 223.043 72.6414 222.841 73.1177 222.468C73.5943 222.095 73.9327 221.574 74.079 220.986L74.0809 220.978C75.0704 217.086 77.1757 213.57 80.1369 210.863C83.0981 208.156 86.7857 206.376 90.7444 205.745L91.0021 205.704L91.2596 205.745C95.213 206.386 98.8941 208.168 101.852 210.873C104.81 213.578 106.917 217.089 107.914 220.975L107.917 220.986C108.063 221.574 108.401 222.095 108.878 222.468C109.354 222.841 109.941 223.043 110.545 223.043C110.817 223.041 111.087 223.001 111.347 222.923C111.73 222.803 116.273 221.346 121.077 218.094C125.915 214.817 130.819 209.86 132.242 202.797L132.526 201.391ZM135.094 204.868C133.1 212.338 127.778 217.486 122.896 220.791C117.698 224.312 112.797 225.882 112.302 226.035L112.292 226.038C111.728 226.209 111.142 226.297 110.553 226.299L110.549 226.299C109.219 226.3 107.927 225.855 106.878 225.035C105.831 224.216 105.087 223.07 104.765 221.78C103.924 218.509 102.151 215.555 99.6612 213.278C97.2344 211.059 94.2296 209.578 90.9979 209.004C87.7637 209.57 84.7555 211.048 82.3275 213.268C79.8362 215.545 78.0647 218.504 77.2314 221.778C76.909 223.069 76.165 224.216 75.1176 225.035C74.0691 225.855 72.7769 226.3 71.4468 226.299L71.4426 226.299C70.8533 226.297 70.2675 226.209 69.7034 226.038L69.6939 226.035C69.1991 225.882 64.2982 224.312 59.0993 220.792C54.2177 217.487 48.8963 212.34 46.9017 204.873C37.1132 205.929 28.0125 210.483 21.2832 217.725C14.2394 225.305 10.3136 235.272 10.2917 245.628V250.72C10.2917 251.439 10.577 252.129 11.0849 252.638C11.5928 253.147 12.2817 253.433 13 253.433H169C169.718 253.433 170.407 253.147 170.915 252.638C171.423 252.129 171.708 251.439 171.708 250.72V245.63C171.692 235.27 167.767 225.299 160.721 217.716C153.99 210.473 144.886 205.92 135.094 204.868Z" fill="white"/>
<path d="M247 3.25601C244.321 3.26714 241.71 4.1073 239.526 5.66156C237.342 7.21582 235.69 9.40826 234.797 11.9389H208C208 9.63608 207.087 7.42754 205.461 5.79918C203.836 4.17081 201.632 3.25601 199.333 3.25601H190.667C188.368 3.25601 186.164 4.17081 184.538 5.79918C182.913 7.42754 182 9.63608 182 11.9389H155.203C154.18 9.04225 152.169 6.60087 149.524 5.04629C146.879 3.49171 143.77 2.92403 140.748 3.44358C137.725 3.96313 134.983 5.53645 133.007 7.88549C131.03 10.2345 129.946 13.208 129.946 16.2804C129.946 19.3528 131.03 22.3263 133.007 24.6753C134.983 27.0243 137.725 28.5977 140.748 29.1172C143.77 29.6368 146.879 29.0691 149.524 27.5145C152.169 25.9599 154.18 23.5185 155.203 20.6219H182C182.004 22.3654 182.532 24.0674 183.515 25.5061C184.498 26.9448 185.891 28.0537 187.512 28.6883L170.534 55.5142C169.395 57.3575 168.876 59.518 169.053 61.6785C169.23 63.839 170.094 65.8858 171.518 67.5184L182 78.7975V94.4267C182 96.7296 182.913 98.9381 184.538 100.567C186.164 102.195 188.368 103.11 190.667 103.11H199.333C201.632 103.11 203.836 102.195 205.461 100.567C207.087 98.9381 208 96.7296 208 94.4267V78.7975L218.552 67.4619C219.952 65.8316 220.796 63.7958 220.96 61.6513C221.125 59.5068 220.601 57.3658 219.466 55.5403L202.488 28.71C204.112 28.074 205.507 26.9618 206.491 25.5188C207.474 24.0758 208 22.3691 208 20.6219H234.797C235.596 22.8672 236.994 24.8494 238.841 26.352C240.688 27.8546 242.911 28.8198 245.269 29.142C247.626 29.4642 250.026 29.1311 252.207 28.1791C254.388 27.227 256.266 25.6927 257.635 23.7437C259.005 21.7948 259.813 19.5062 259.972 17.128C260.131 14.7499 259.635 12.3737 258.537 10.2591C257.44 8.14446 255.783 6.37284 253.748 5.13778C251.713 3.90272 249.379 3.25175 247 3.25601ZM143 20.6219C142.143 20.6219 141.305 20.3672 140.592 19.8902C139.88 19.4131 139.324 18.7351 138.996 17.9418C138.668 17.1485 138.583 16.2756 138.75 15.4334C138.917 14.5913 139.33 13.8177 139.936 13.2105C140.542 12.6034 141.314 12.1899 142.154 12.0224C142.995 11.8548 143.866 11.9408 144.658 12.2694C145.45 12.598 146.127 13.1545 146.603 13.8684C147.079 14.5824 147.333 15.4217 147.333 16.2804C147.333 17.4318 146.877 18.5361 146.064 19.3503C145.251 20.1645 144.149 20.6219 143 20.6219ZM190.667 11.9389H199.333V20.6219H190.667V11.9389ZM190.667 94.4267V81.4024H199.333V94.4267H190.667ZM212.143 61.5923L201.782 72.7194H188.218L177.931 61.6704C177.773 61.454 177.682 61.1963 177.668 60.9288C177.655 60.6613 177.719 60.3955 177.853 60.1639L190.667 39.9153V55.3536C190.667 56.505 191.123 57.6093 191.936 58.4235C192.748 59.2376 193.851 59.695 195 59.695C196.149 59.695 197.251 59.2376 198.064 58.4235C198.877 57.6093 199.333 56.505 199.333 55.3536V39.9153L212.151 60.1683C212.279 60.3842 212.345 60.6307 212.344 60.8815C212.342 61.1323 212.273 61.3779 212.143 61.5923ZM247 20.6219C246.143 20.6219 245.305 20.3672 244.592 19.8902C243.88 19.4131 243.324 18.7351 242.996 17.9418C242.668 17.1485 242.583 16.2756 242.75 15.4334C242.917 14.5913 243.33 13.8177 243.936 13.2105C244.542 12.6034 245.314 12.1899 246.154 12.0224C246.995 11.8548 247.866 11.9408 248.658 12.2694C249.45 12.598 250.127 13.1545 250.603 13.8684C251.079 14.5824 251.333 15.4217 251.333 16.2804C251.333 17.4318 250.877 18.5361 250.064 19.3503C249.251 20.1645 248.149 20.6219 247 20.6219Z" fill="white"/>
<path fill-rule="evenodd" clip-rule="evenodd" d="M140.473 1.83898C143.873 1.25448 147.37 1.89313 150.346 3.64203C152.985 5.19312 155.064 7.52896 156.302 10.3109H180.504C180.844 8.17949 181.846 6.19364 183.389 4.64797C185.319 2.71429 187.937 1.62796 190.667 1.62796H199.333C202.063 1.62796 204.68 2.71429 206.611 4.64797C208.153 6.19364 209.156 8.17949 209.496 10.3109H233.697C234.761 7.92294 236.446 5.8565 238.585 4.33422C241.043 2.58568 243.979 1.64049 246.993 1.62797L246.997 1.62796C249.674 1.62318 252.301 2.35565 254.59 3.74535C256.88 5.13505 258.744 7.12849 259.979 9.50785C261.214 11.8872 261.773 14.5609 261.594 17.2369C261.415 19.9128 260.505 22.4879 258.964 24.6809C257.423 26.8739 255.31 28.6004 252.856 29.6716C250.402 30.7428 247.701 31.1177 245.049 30.7551C242.397 30.3925 239.895 29.3065 237.817 27.6158C236.041 26.1707 234.633 24.3313 233.7 22.2499H209.496C209.257 23.7448 208.692 25.1756 207.833 26.4368C207.033 27.6101 206.004 28.5991 204.816 29.3487L220.845 54.6793C222.163 56.7993 222.771 59.2857 222.58 61.776C222.389 64.2664 221.409 66.6306 219.783 68.5238L219.762 68.5485L209.625 79.4388V94.4267C209.625 97.1614 208.541 99.784 206.611 101.718C204.68 103.651 202.063 104.738 199.333 104.738H190.667C187.937 104.738 185.319 103.651 183.389 101.718C181.459 99.784 180.375 97.1614 180.375 94.4267V79.4381L170.311 68.6089L170.294 68.5894C168.642 66.6947 167.639 64.3192 167.434 61.8117C167.228 59.3042 167.831 56.7968 169.152 54.6574L169.161 54.6423L185.184 29.3269C183.999 28.5797 182.973 27.5943 182.174 26.4258C181.315 25.1682 180.748 23.7413 180.507 22.2499H156.302C155.064 25.0318 152.985 27.3677 150.346 28.9188C147.37 30.6677 143.873 31.3063 140.473 30.7218C137.073 30.1373 133.988 28.3673 131.764 25.7247C129.541 23.082 128.321 19.7368 128.321 16.2804C128.321 12.824 129.541 9.47878 131.764 6.83612C133.988 4.19346 137.073 2.42347 140.473 1.83898ZM148.702 6.45056C146.387 5.0903 143.667 4.59358 141.023 5.04818C138.378 5.50279 135.979 6.87945 134.249 8.93485C132.52 10.9903 131.571 13.5921 131.571 16.2804C131.571 18.9687 132.52 21.5705 134.249 23.6259C135.979 25.6814 138.378 27.058 141.023 27.5126C143.667 27.9672 146.387 27.4705 148.702 26.1102C151.016 24.75 152.776 22.6138 153.671 20.0792L154.054 18.9938H183.621L183.625 20.618C183.628 22.0346 184.057 23.4174 184.856 24.5864C185.655 25.7553 186.786 26.6563 188.103 27.1719L189.94 27.8912L171.911 56.3782C170.959 57.9239 170.525 59.7346 170.673 61.5453C170.821 63.3506 171.54 65.0612 172.725 66.4286L183.625 78.1569V94.4267C183.625 96.2978 184.367 98.0922 185.687 99.4153C187.008 100.738 188.799 101.482 190.667 101.482H199.333C201.201 101.482 202.992 100.738 204.312 99.4153C205.633 98.0922 206.375 96.2978 206.375 94.4267V78.1561L217.34 66.3764C218.502 65.013 219.203 63.3149 219.34 61.5266C219.478 59.73 219.04 57.9363 218.09 56.4063L218.087 56.4012L200.059 27.9129L201.896 27.1936C203.216 26.6769 204.35 25.7732 205.149 24.6008C205.948 23.4284 206.375 22.0417 206.375 20.622L206.375 18.9938H235.943L236.328 20.0756C237.026 22.0397 238.25 23.7738 239.866 25.0882C241.481 26.4027 243.426 27.247 245.488 27.5289C247.55 27.8108 249.65 27.5194 251.558 26.6865C253.466 25.8537 255.109 24.5115 256.307 22.8065C257.505 21.1016 258.212 19.0996 258.351 17.0192C258.49 14.9388 258.056 12.8601 257.096 11.0103C256.135 9.16043 254.686 7.61063 252.906 6.53021C251.127 5.45014 249.085 4.88069 247.005 4.88405C244.661 4.89417 242.378 5.62928 240.467 6.9889C238.556 8.34888 237.111 10.2673 236.329 12.4816L235.946 13.567H206.375V11.9389C206.375 10.0679 205.633 8.27343 204.312 6.95038C202.992 5.62734 201.201 4.88406 199.333 4.88406H190.667C188.799 4.88406 187.008 5.62734 185.687 6.95038C184.367 8.27343 183.625 10.0679 183.625 11.9389V13.567H154.054L153.671 12.4816C152.776 9.94702 151.016 7.81081 148.702 6.45056ZM144.036 13.7735C143.541 13.5682 142.997 13.5144 142.472 13.6191C141.946 13.7238 141.464 13.9822 141.085 14.3617C140.706 14.7412 140.448 15.2247 140.344 15.751C140.239 16.2774 140.293 16.823 140.498 17.3188C140.703 17.8146 141.05 18.2384 141.495 18.5365C141.941 18.8347 142.464 18.9938 143 18.9938C143.718 18.9938 144.407 18.7079 144.915 18.1991C145.423 17.6902 145.708 17 145.708 16.2804C145.708 15.7437 145.549 15.2191 145.252 14.7729C144.954 14.3267 144.531 13.9789 144.036 13.7735ZM141.837 10.4256C142.993 10.1953 144.191 10.3135 145.28 10.7653C146.369 11.2171 147.299 11.9822 147.954 12.9639C148.609 13.9456 148.958 15.0997 148.958 16.2804C148.958 17.8636 148.33 19.382 147.213 20.5015C146.096 21.621 144.58 22.2499 143 22.2499C141.821 22.2499 140.669 21.8998 139.69 21.2439C138.71 20.5879 137.946 19.6556 137.495 18.5648C137.044 17.4741 136.926 16.2738 137.156 15.1158C137.386 13.9578 137.953 12.8942 138.787 12.0593C139.62 11.2245 140.682 10.6559 141.837 10.4256ZM248.036 13.7735C247.541 13.5682 246.997 13.5144 246.472 13.6191C245.946 13.7238 245.464 13.9822 245.085 14.3617C244.706 14.7412 244.448 15.2247 244.344 15.751C244.239 16.2774 244.293 16.823 244.498 17.3188C244.703 17.8146 245.05 18.2384 245.495 18.5365C245.941 18.8347 246.464 18.9938 247 18.9938C247.718 18.9938 248.407 18.7079 248.915 18.1991C249.423 17.6902 249.708 17 249.708 16.2804C249.708 15.7437 249.549 15.2191 249.252 14.7729C248.954 14.3267 248.531 13.9789 248.036 13.7735ZM245.837 10.4256C246.993 10.1953 248.191 10.3135 249.28 10.7653C250.369 11.2171 251.299 11.9822 251.954 12.9639C252.609 13.9456 252.958 15.0997 252.958 16.2804C252.958 17.8636 252.33 19.382 251.213 20.5015C250.096 21.621 248.58 22.2499 247 22.2499C245.821 22.2499 244.669 21.8998 243.69 21.2439C242.71 20.5879 241.946 19.6556 241.495 18.5648C241.044 17.4741 240.926 16.2738 241.156 15.1158C241.386 13.9578 241.953 12.8942 242.787 12.0593C243.62 11.2245 244.682 10.6559 245.837 10.4256ZM189.042 10.3109H200.958V22.2499H189.042V10.3109ZM192.292 13.567V18.9938H197.708V13.567H192.292ZM192.292 34.307V55.3536C192.292 56.0732 192.577 56.7634 193.085 57.2723C193.593 57.7811 194.282 58.067 195 58.067C195.718 58.067 196.407 57.7811 196.915 57.2723C197.423 56.7634 197.708 56.0732 197.708 55.3536V34.3076L213.537 59.3179L213.55 59.3398C213.827 59.8095 213.972 60.3457 213.969 60.8914C213.965 61.437 213.814 61.9715 213.531 62.4378L213.445 62.5806L202.488 74.3475H187.512L176.676 62.7089L176.618 62.6293C176.275 62.1576 176.076 61.5961 176.046 61.0131C176.015 60.4302 176.155 59.8511 176.448 59.3463L176.464 59.3189L192.292 34.307ZM200.958 45.5231V55.3536C200.958 56.9368 200.33 58.4552 199.213 59.5747C198.096 60.6942 196.58 61.3231 195 61.3231C193.42 61.3231 191.904 60.6942 190.787 59.5747C189.669 58.4552 189.042 56.9368 189.042 55.3536V45.5237L179.362 60.8203L188.925 71.0914H201.075L210.639 60.8198L200.958 45.5231ZM189.042 79.7743H200.958V96.0548H189.042V79.7743ZM192.292 83.0304V92.7987H197.708V83.0304H192.292Z" fill="white"/>
<path d="M260.001 145.443C259.8 138.693 257.639 132.148 253.782 126.609C249.926 121.07 244.541 116.778 238.288 114.257C232.034 111.737 225.183 111.098 218.572 112.418C211.961 113.738 205.878 116.961 201.067 121.691C197.778 124.916 195.162 128.765 193.372 133.013C191.583 137.261 190.656 141.824 190.645 146.435C190.634 151.046 191.54 155.613 193.309 159.869C195.078 164.126 197.676 167.987 200.95 171.227C203.162 173.357 204.925 175.909 206.136 178.733C207.347 181.557 207.981 184.595 208.001 187.669V198.622C208.005 200.139 208.408 201.629 209.169 202.941C209.929 204.253 211.021 205.342 212.334 206.098V211.646C212.334 215.101 213.704 218.413 216.142 220.856C218.58 223.299 221.886 224.671 225.334 224.671C228.782 224.671 232.088 223.299 234.526 220.856C236.964 218.413 238.334 215.101 238.334 211.646V206.098C239.647 205.342 240.739 204.253 241.499 202.941C242.26 201.629 242.663 200.139 242.667 198.622V187.69C242.667 187.03 242.711 186.388 242.776 185.715C242.776 185.676 242.797 185.641 242.797 185.598V185.528C243.494 179.954 246.063 174.784 250.082 170.867C253.377 167.53 255.957 163.554 257.663 159.182C259.369 154.81 260.164 150.135 260.001 145.443ZM234.001 189.939V198.622H216.667V189.939H234.001ZM229.667 211.646C229.667 212.798 229.211 213.902 228.398 214.716C227.586 215.53 226.483 215.988 225.334 215.988C224.185 215.988 223.083 215.53 222.27 214.716C221.457 213.902 221.001 212.798 221.001 211.646V207.305H229.667V211.646ZM234.72 181.256H215.996C214.675 175.085 211.561 169.443 207.047 165.041C203.384 161.409 200.88 156.768 199.855 151.708C198.829 146.647 199.328 141.396 201.288 136.62C203.247 131.844 206.579 127.76 210.861 124.885C215.142 122.011 220.18 120.476 225.334 120.476H225.923C232.556 120.691 238.861 123.412 243.575 128.092C248.288 132.773 251.06 139.066 251.334 145.708C251.456 149.224 250.86 152.728 249.58 156.004C248.3 159.28 246.365 162.26 243.894 164.759C239.343 169.28 236.162 175 234.72 181.256Z" fill="white"/>
<path fill-rule="evenodd" clip-rule="evenodd" d="M218.254 110.821C225.175 109.439 232.347 110.108 238.894 112.747C245.441 115.385 251.078 119.879 255.115 125.678C259.151 131.475 261.414 138.325 261.625 145.391C261.796 150.302 260.962 155.197 259.176 159.775C257.39 164.353 254.688 168.518 251.237 172.012L251.215 172.034C247.484 175.671 245.09 180.464 244.422 185.634C244.419 185.766 244.402 185.875 244.386 185.954L244.385 185.962C244.327 186.571 244.292 187.129 244.292 187.69V198.622V198.627C244.287 200.43 243.808 202.2 242.905 203.759C242.163 205.037 241.158 206.138 239.959 206.987V211.646C239.959 215.532 238.418 219.259 235.676 222.007C232.933 224.755 229.213 226.299 225.334 226.299C221.455 226.299 217.735 224.755 214.993 222.007C212.25 219.259 210.709 215.532 210.709 211.646V206.987C209.51 206.138 208.505 205.037 207.763 203.759C206.86 202.2 206.381 200.43 206.376 198.627V198.622V187.674C206.357 184.82 205.768 181.998 204.643 179.376C203.518 176.752 201.879 174.38 199.824 172.401L199.808 172.386C196.38 168.994 193.661 164.951 191.809 160.495C189.957 156.039 189.008 151.258 189.02 146.431C189.031 141.604 190.002 136.827 191.875 132.38C193.748 127.933 196.487 123.904 199.93 120.528C204.966 115.577 211.334 112.204 218.254 110.821ZM237.681 115.768C231.721 113.365 225.19 112.756 218.89 114.015C212.589 115.273 206.791 118.345 202.206 122.853C199.07 125.927 196.575 129.597 194.87 133.646C193.164 137.695 192.28 142.044 192.27 146.439C192.259 150.833 193.123 155.186 194.809 159.244C196.494 163.298 198.968 166.975 202.085 170.062C204.449 172.341 206.334 175.071 207.629 178.091C208.926 181.114 209.605 184.367 209.626 187.658L209.626 187.669L209.626 198.62C209.63 199.851 209.957 201.059 210.574 202.124C211.191 203.189 212.078 204.073 213.144 204.686L213.959 205.156V211.646C213.959 214.669 215.158 217.568 217.291 219.705C219.424 221.842 222.317 223.043 225.334 223.043C228.351 223.043 231.244 221.842 233.377 219.705C235.511 217.568 236.709 214.669 236.709 211.646V205.156L237.524 204.686C238.591 204.073 239.477 203.189 240.094 202.124C240.711 201.059 241.038 199.851 241.042 198.62V187.69C241.042 186.97 241.089 186.281 241.155 185.59C241.159 185.534 241.165 185.484 241.172 185.441V185.427L241.185 185.326C241.927 179.391 244.661 173.885 248.937 169.711C252.072 166.535 254.526 162.75 256.149 158.589C257.775 154.424 258.533 149.97 258.377 145.5L258.376 145.492C258.185 139.058 256.125 132.82 252.449 127.54C248.774 122.261 243.642 118.17 237.681 115.768ZM225.334 122.104C220.502 122.104 215.779 123.543 211.766 126.238C207.752 128.932 204.628 132.762 202.791 137.239C200.953 141.716 200.486 146.64 201.447 151.384C202.408 156.126 204.754 160.475 208.186 163.879C212.611 168.197 215.755 173.649 217.283 179.628H233.452C235.083 173.568 238.286 168.039 242.744 163.608C245.058 161.267 246.869 158.478 248.067 155.411C249.265 152.343 249.824 149.062 249.71 145.77C249.452 139.54 246.851 133.638 242.431 129.249C238.015 124.864 232.11 122.312 225.897 122.104H225.334ZM209.956 123.533C214.505 120.478 219.858 118.848 225.334 118.848H225.95L225.976 118.848C233.019 119.078 239.714 121.967 244.719 126.936C249.723 131.906 252.666 138.588 252.958 145.641L252.958 145.652C253.088 149.389 252.454 153.114 251.093 156.597C249.733 160.08 247.676 163.248 245.048 165.905L245.038 165.915C240.705 170.22 237.677 175.665 236.303 181.622L236.013 182.884H214.682L214.407 181.598C213.153 175.741 210.198 170.386 205.914 166.207L205.904 166.198C202.012 162.339 199.352 157.408 198.262 152.032C197.173 146.655 197.702 141.075 199.785 136.001C201.867 130.927 205.407 126.587 209.956 123.533ZM215.042 188.311H235.626V200.25H215.042V188.311ZM218.292 191.567V196.994H232.376V191.567H218.292ZM219.376 205.677H231.292V211.646C231.292 213.23 230.665 214.748 229.547 215.867C228.43 216.987 226.914 217.616 225.334 217.616C223.754 217.616 222.238 216.987 221.121 215.867C220.003 214.748 219.376 213.23 219.376 211.646V205.677ZM222.626 208.933V211.646C222.626 212.366 222.911 213.056 223.419 213.565C223.927 214.074 224.616 214.36 225.334 214.36C226.052 214.36 226.741 214.074 227.249 213.565C227.757 213.056 228.042 212.366 228.042 211.646V208.933H222.626Z" fill="white"/>
<path d="M225.334 129.158C220.737 129.158 216.328 130.988 213.078 134.244C209.827 137.501 208.001 141.918 208.001 146.524C208.001 147.675 208.457 148.779 209.27 149.594C210.083 150.408 211.185 150.865 212.334 150.865C213.483 150.865 214.586 150.408 215.398 149.594C216.211 148.779 216.667 147.675 216.667 146.524C216.667 144.221 217.581 142.012 219.206 140.384C220.831 138.756 223.036 137.841 225.334 137.841C226.483 137.841 227.586 137.383 228.398 136.569C229.211 135.755 229.667 134.651 229.667 133.499C229.667 132.348 229.211 131.244 228.398 130.429C227.586 129.615 226.483 129.158 225.334 129.158Z" fill="white"/>
<path fill-rule="evenodd" clip-rule="evenodd" d="M211.929 133.093C215.484 129.531 220.306 127.53 225.334 127.53C226.914 127.53 228.43 128.159 229.547 129.278C230.665 130.398 231.292 131.916 231.292 133.499C231.292 135.083 230.665 136.601 229.547 137.72C228.43 138.84 226.914 139.469 225.334 139.469C223.467 139.469 221.675 140.212 220.355 141.535C219.034 142.858 218.292 144.653 218.292 146.524C218.292 148.107 217.665 149.625 216.547 150.745C215.43 151.864 213.914 152.493 212.334 152.493C210.754 152.493 209.238 151.864 208.121 150.745C207.004 149.625 206.376 148.107 206.376 146.524C206.376 141.486 208.373 136.655 211.929 133.093ZM225.334 130.786C221.168 130.786 217.173 132.444 214.227 135.395C211.281 138.347 209.626 142.35 209.626 146.524C209.626 147.243 209.911 147.934 210.419 148.442C210.927 148.951 211.616 149.237 212.334 149.237C213.052 149.237 213.741 148.951 214.249 148.442C214.757 147.934 215.042 147.243 215.042 146.524C215.042 143.789 216.127 141.166 218.057 139.233C219.987 137.299 222.605 136.213 225.334 136.213C226.052 136.213 226.741 135.927 227.249 135.418C227.757 134.909 228.042 134.219 228.042 133.499C228.042 132.78 227.757 132.09 227.249 131.581C226.741 131.072 226.052 130.786 225.334 130.786Z" fill="white"/>
</g>
<defs>
<clipPath id="clip0_8_49">
<rect width="260" height="267" fill="white"/>
</clipPath>
</defs>
</svg>
