<svg width="61" height="61" viewBox="0 0 61 61" fill="none" xmlns="http://www.w3.org/2000/svg">
<g clip-path="url(#clip0_431_2)">
<path d="M30.5 3.8125C30.2487 3.8125 30.003 3.88703 29.794 4.02667C29.585 4.16632 29.4221 4.36479 29.3259 4.59701C29.2297 4.82922 29.2046 5.08474 29.2536 5.33126C29.3026 5.57778 29.4237 5.80422 29.6014 5.98195C29.7791 6.15968 30.0056 6.28071 30.2521 6.32975C30.4986 6.37878 30.7541 6.35362 30.9863 6.25743C31.2185 6.16124 31.417 5.99836 31.5567 5.78937C31.6963 5.58038 31.7708 5.33468 31.7708 5.08333C31.7708 4.74629 31.6369 4.42305 31.3986 4.18472C31.1603 3.94639 30.837 3.8125 30.5 3.8125V3.8125ZM43.2083 0H17.7917C16.1064 0 14.4902 0.669455 13.2986 1.86109C12.107 3.05273 11.4375 4.66894 11.4375 6.35417V54.6458C11.4375 55.4803 11.6019 56.3065 11.9212 57.0775C12.2405 57.8484 12.7086 58.5489 13.2986 59.1389C13.8886 59.7289 14.5891 60.197 15.36 60.5163C16.131 60.8356 16.9572 61 17.7917 61H43.2083C44.0428 61 44.869 60.8356 45.64 60.5163C46.4109 60.197 47.1114 59.7289 47.7014 59.1389C48.2914 58.5489 48.7595 57.8484 49.0788 57.0775C49.3981 56.3065 49.5625 55.4803 49.5625 54.6458V6.35417C49.5625 4.66894 48.893 3.05273 47.7014 1.86109C46.5098 0.669455 44.8936 0 43.2083 0V0ZM47.0208 54.6458C47.0208 55.657 46.6192 56.6267 45.9042 57.3417C45.1892 58.0567 44.2195 58.4583 43.2083 58.4583H17.7917C16.7805 58.4583 15.8108 58.0567 15.0958 57.3417C14.3808 56.6267 13.9792 55.657 13.9792 54.6458V45.75H47.0208V54.6458ZM47.0208 43.2083H13.9792V10.1667H47.0208V43.2083ZM47.0208 7.625H13.9792V6.35417C13.9792 5.34303 14.3808 4.3733 15.0958 3.65832C15.8108 2.94334 16.7805 2.54167 17.7917 2.54167H43.2083C44.2195 2.54167 45.1892 2.94334 45.9042 3.65832C46.6192 4.3733 47.0208 5.34303 47.0208 6.35417V7.625ZM30.5 55.9167C31.254 55.9167 31.9911 55.6931 32.6181 55.2741C33.2451 54.8552 33.7337 54.2598 34.0223 53.5631C34.3109 52.8665 34.3864 52.0999 34.2392 51.3604C34.0921 50.6208 33.729 49.9415 33.1958 49.4083C32.6627 48.8751 31.9833 48.512 31.2438 48.3649C30.5042 48.2178 29.7377 48.2933 29.041 48.5819C28.3444 48.8704 27.7489 49.3591 27.33 49.9861C26.9111 50.613 26.6875 51.3501 26.6875 52.1042C26.6875 53.1153 27.0892 54.085 27.8042 54.8C28.5191 55.515 29.4889 55.9167 30.5 55.9167ZM30.5 50.8333C30.7513 50.8333 30.9971 50.9079 31.206 51.0475C31.415 51.1871 31.5779 51.3856 31.6741 51.6178C31.7703 51.8501 31.7955 52.1056 31.7464 52.3521C31.6974 52.5986 31.5763 52.8251 31.3986 53.0028C31.2209 53.1805 30.9944 53.3015 30.7479 53.3506C30.5014 53.3996 30.2459 53.3744 30.0137 53.2783C29.7815 53.1821 29.583 53.0192 29.4433 52.8102C29.3037 52.6012 29.2292 52.3555 29.2292 52.1042C29.2292 51.7671 29.3631 51.4439 29.6014 51.2056C29.8397 50.9672 30.163 50.8333 30.5 50.8333Z" fill="white"/>
<path d="M23.3292 33.3449H19.2594C18.8524 33.3449 18.5811 33.0736 18.5811 32.6666V28.5968C18.5811 28.1898 18.8524 27.9185 19.2594 27.9185H23.3292C23.7362 27.9185 24.0075 28.1898 24.0075 28.5968V32.6666C24.0075 33.0736 23.7362 33.3449 23.3292 33.3449ZM19.9377 31.9883H22.6509V29.2751H19.9377V31.9883Z" fill="white"/>
<path d="M32.8255 23.8487H28.7557C28.3487 23.8487 28.0774 23.5774 28.0774 23.1704V19.1006C28.0774 18.6936 28.3487 18.4223 28.7557 18.4223H32.8255C33.2325 18.4223 33.5038 18.6936 33.5038 19.1006V23.1704C33.5038 23.5774 33.2325 23.8487 32.8255 23.8487ZM29.434 22.4921H32.1472V19.7789H29.434V22.4921Z" fill="white"/>
<path d="M21.2943 29.2751C20.8873 29.2751 20.616 29.0038 20.616 28.5968C20.616 24.12 24.2788 20.4572 28.7556 20.4572C29.1626 20.4572 29.4339 20.7285 29.4339 21.1355C29.4339 21.5424 29.1626 21.8138 28.7556 21.8138C25.0249 21.8138 21.9726 24.8661 21.9726 28.5968C21.9726 29.0038 21.7013 29.2751 21.2943 29.2751Z" fill="white"/>
<path d="M42.3217 33.3449H38.2519C37.8449 33.3449 37.5736 33.0736 37.5736 32.6666V28.5968C37.5736 28.1898 37.8449 27.9185 38.2519 27.9185H42.3217C42.7287 27.9185 43 28.1898 43 28.5968V32.6666C43 33.0736 42.7287 33.3449 42.3217 33.3449ZM38.9302 31.9883H41.6434V29.2751H38.9302V31.9883Z" fill="white"/>
<path d="M40.2867 29.2751C39.8797 29.2751 39.6084 29.0038 39.6084 28.5968C39.6084 24.8661 36.5561 21.8138 32.8254 21.8138C32.4184 21.8138 32.1471 21.5424 32.1471 21.1355C32.1471 20.7285 32.4184 20.4572 32.8254 20.4572C37.3022 20.4572 40.965 24.12 40.965 28.5968C40.965 29.0038 40.6937 29.2751 40.2867 29.2751Z" fill="white"/>
<path d="M28.7556 21.8138H19.2594C18.8524 21.8138 18.5811 21.5424 18.5811 21.1355C18.5811 20.7285 18.8524 20.4572 19.2594 20.4572H28.7556C29.1626 20.4572 29.4339 20.7285 29.4339 21.1355C29.4339 21.5424 29.1626 21.8138 28.7556 21.8138Z" fill="white"/>
<path d="M42.3216 21.8138H32.8254C32.4184 21.8138 32.1471 21.5424 32.1471 21.1355C32.1471 20.7285 32.4184 20.4572 32.8254 20.4572H42.3216C42.7286 20.4572 42.9999 20.7285 42.9999 21.1355C42.9999 21.5424 42.7286 21.8138 42.3216 21.8138Z" fill="white"/>
<path d="M32.1472 33.3449H29.434C29.027 33.3449 28.7557 33.0736 28.7557 32.6666C28.7557 31.9205 27.4669 30.6317 26.7207 30.6317C26.4494 30.6317 26.1781 30.4961 26.1103 30.2247C26.0424 29.9534 26.0424 29.6821 26.2459 29.4786L30.3157 25.4088C30.5871 25.1375 30.9941 25.1375 31.2654 25.4088L35.3352 29.4786C35.5387 29.6821 35.6065 29.9534 35.4709 30.2247C35.3352 30.4961 35.1317 30.6317 34.8604 30.6317C34.1142 30.6317 32.8255 31.9205 32.8255 32.6666C32.8255 33.0736 32.5541 33.3449 32.1472 33.3449ZM29.9766 31.9883H31.5367C31.808 31.1065 32.622 30.1569 33.5716 29.6821L30.7906 26.8332L28.0095 29.6143C28.8913 30.1569 29.7053 31.1065 29.9766 31.9883Z" fill="white"/>
<path d="M32.1473 36.0582H29.434C29.0271 36.0582 28.7557 35.7868 28.7557 35.3799V32.6666C28.7557 32.2597 29.0271 31.9883 29.434 31.9883H32.1473C32.5542 31.9883 32.8256 32.2597 32.8256 32.6666V35.3799C32.8256 35.7868 32.5542 36.0582 32.1473 36.0582ZM30.1123 34.7016H31.469V33.3449H30.1123V34.7016Z" fill="white"/>
<path d="M30.7906 29.2751C30.3836 29.2751 30.1123 29.0038 30.1123 28.5968V25.8836C30.1123 25.4766 30.3836 25.2053 30.7906 25.2053C31.1976 25.2053 31.4689 25.4766 31.4689 25.8836V28.5968C31.4689 29.0038 31.1976 29.2751 30.7906 29.2751Z" fill="white"/>
</g>
<defs>
<clipPath id="clip0_431_2">
<rect width="61" height="61" fill="white"/>
</clipPath>
</defs>
</svg>
