<svg width="24" height="25" viewBox="0 0 24 25" fill="none" xmlns="http://www.w3.org/2000/svg">
<g clip-path="url(#clip0_1_1108)">
<path d="M17.5929 15.1708C17.2029 14.7795 16.5729 14.7795 16.1829 15.1708L13 18.3541V3.13438C13 2.58258 12.55 2.1311 12 2.1311C11.45 2.1311 11 2.58258 11 3.13438V18.3642L7.82713 15.1809C7.43713 14.7896 6.80713 14.7896 6.41713 15.1809C6.02713 15.5721 6.02713 16.2042 6.41713 16.5955L11.3 21.4944C11.69 21.8857 12.32 21.8857 12.71 21.4944L17.5929 16.5955C17.9729 16.2042 17.9729 15.5621 17.5929 15.1708Z" fill="#FF8870"/>
</g>
<defs>
<clipPath id="clip0_1_1108">
<rect width="24" height="24.0787" fill="white" transform="translate(0 0.124573)"/>
</clipPath>
</defs>
</svg>
