<svg width="52" height="44" viewBox="0 0 52 44" fill="none" xmlns="http://www.w3.org/2000/svg">
<path d="M10.1111 32.4559H1.44444C0.577776 32.4559 0 31.8658 0 30.9806V22.129C0 21.2439 0.577776 20.6537 1.44444 20.6537H10.1111C10.9778 20.6537 11.5555 21.2439 11.5555 22.129V30.9806C11.5555 31.8658 10.9778 32.4559 10.1111 32.4559ZM2.88888 29.5054H8.66665V23.6043H2.88888V29.5054Z" fill="white"/>
<path d="M30.3334 11.8022H21.6667C20.8001 11.8022 20.2223 11.212 20.2223 10.3269V1.47527C20.2223 0.590108 20.8001 0 21.6667 0H30.3334C31.2 0 31.7778 0.590108 31.7778 1.47527V10.3269C31.7778 11.212 31.2 11.8022 30.3334 11.8022ZM23.1112 8.85162H28.8889V2.95054H23.1112V8.85162Z" fill="white"/>
<path d="M5.77781 23.6043C4.91115 23.6043 4.33337 23.0142 4.33337 22.129C4.33337 12.3922 12.1334 4.42578 21.6667 4.42578C22.5333 4.42578 23.1111 5.01589 23.1111 5.90105C23.1111 6.78621 22.5333 7.37632 21.6667 7.37632C13.7222 7.37632 7.22226 14.015 7.22226 22.129C7.22226 23.0142 6.64448 23.6043 5.77781 23.6043Z" fill="white"/>
<path d="M50.5555 32.4559H41.8889C41.0222 32.4559 40.4445 31.8658 40.4445 30.9806V22.129C40.4445 21.2439 41.0222 20.6537 41.8889 20.6537H50.5555C51.4222 20.6537 52 21.2439 52 22.129V30.9806C52 31.8658 51.4222 32.4559 50.5555 32.4559ZM43.3333 29.5054H49.1111V23.6043H43.3333V29.5054Z" fill="white"/>
<path d="M46.2222 23.6043C45.3555 23.6043 44.7778 23.0142 44.7778 22.129C44.7778 14.015 38.2778 7.37632 30.3334 7.37632C29.4667 7.37632 28.8889 6.78621 28.8889 5.90105C28.8889 5.01589 29.4667 4.42578 30.3334 4.42578C39.8667 4.42578 47.6666 12.3922 47.6666 22.129C47.6666 23.0142 47.0889 23.6043 46.2222 23.6043Z" fill="white"/>
<path d="M21.6666 7.37632H1.44444C0.577776 7.37632 0 6.78621 0 5.90105C0 5.01589 0.577776 4.42578 1.44444 4.42578H21.6666C22.5333 4.42578 23.1111 5.01589 23.1111 5.90105C23.1111 6.78621 22.5333 7.37632 21.6666 7.37632Z" fill="white"/>
<path d="M50.5555 7.37632H30.3334C29.4667 7.37632 28.8889 6.78621 28.8889 5.90105C28.8889 5.01589 29.4667 4.42578 30.3334 4.42578H50.5555C51.4222 4.42578 52 5.01589 52 5.90105C52 6.78621 51.4222 7.37632 50.5555 7.37632Z" fill="white"/>
<path d="M28.8888 37.7032H23.111C22.2444 37.7032 21.6666 37.1131 21.6666 36.228C21.6666 34.6052 18.9222 31.8022 17.3333 31.8022C16.7555 31.8022 16.1777 31.5071 16.0333 30.917C15.8888 30.3269 15.8888 29.7368 16.3222 29.2942L24.9888 20.4426C25.5666 19.8525 26.4333 19.8525 27.011 20.4426L35.6777 29.2942C36.111 29.7368 36.2555 30.3269 35.9666 30.917C35.6777 31.5071 35.2443 31.8022 34.6666 31.8022C33.0777 31.8022 30.3332 34.6052 30.3332 36.228C30.3332 37.1131 29.7555 37.7032 28.8888 37.7032ZM24.2666 34.7527H27.5888C28.1666 32.8348 29.8999 30.7695 31.9221 29.7368L25.9999 23.5406L20.0777 29.5893C21.9555 30.7695 23.6888 32.8348 24.2666 34.7527Z" fill="white"/>
<path d="M28.8888 43.6043H23.1111C22.2444 43.6043 21.6666 43.0142 21.6666 42.1291V36.228C21.6666 35.3428 22.2444 34.7527 23.1111 34.7527H28.8888C29.7555 34.7527 30.3333 35.3428 30.3333 36.228V42.1291C30.3333 43.0142 29.7555 43.6043 28.8888 43.6043ZM24.5555 40.6538H27.4444V37.7033H24.5555V40.6538Z" fill="white"/>
<path d="M26 28.8516C25.1333 28.8516 24.5555 28.2615 24.5555 27.3763V21.4753C24.5555 20.5901 25.1333 20 26 20C26.8666 20 27.4444 20.5901 27.4444 21.4753V27.3763C27.4444 28.2615 26.8666 28.8516 26 28.8516Z" fill="white"/>
</svg>
