<svg width="56" height="56" viewBox="0 0 56 56" fill="none" xmlns="http://www.w3.org/2000/svg">
<g clip-path="url(#clip0_19_2)">
<path d="M4.2 56.2H51.8C54.2438 56.2 56.2 54.2438 56.2 51.8V4.2C56.2 1.75621 54.2438 -0.2 51.8 -0.2H4.2C1.75621 -0.2 -0.2 1.75621 -0.2 4.2V51.8C-0.2 54.2438 1.75621 56.2 4.2 56.2ZM2.06667 4.2C2.06667 3.00379 3.00379 2.06667 4.2 2.06667H51.8C52.9962 2.06667 53.9333 3.00379 53.9333 4.2V51.8C53.9333 52.9962 52.9962 53.9333 51.8 53.9333H4.2C3.00379 53.9333 2.06667 52.9962 2.06667 51.8V4.2Z" fill="white" stroke="white" stroke-width="0.4"/>
<path d="M8.39994 9.33334H4.66661C4.10661 9.33334 3.73328 8.96 3.73328 8.4V4.66667C3.73328 4.10667 4.10661 3.73334 4.66661 3.73334H8.39994C8.95994 3.73334 9.33328 4.10667 9.33328 4.66667V8.4C9.33328 8.96 8.95994 9.33334 8.39994 9.33334ZM5.59994 7.46667H7.46661V5.6H5.59994V7.46667Z" fill="white"/>
<path d="M15.8666 9.33334H12.1333C11.5733 9.33334 11.2 8.96 11.2 8.4V4.66667C11.2 4.10667 11.5733 3.73334 12.1333 3.73334H15.8666C16.4266 3.73334 16.8 4.10667 16.8 4.66667V8.4C16.8 8.96 16.4266 9.33334 15.8666 9.33334ZM13.0666 7.46667H14.9333V5.6H13.0666V7.46667Z" fill="white"/>
<path d="M23.3333 9.33334H19.6C19.04 9.33334 18.6666 8.96 18.6666 8.4V4.66667C18.6666 4.10667 19.04 3.73334 19.6 3.73334H23.3333C23.8933 3.73334 24.2666 4.10667 24.2666 4.66667V8.4C24.2666 8.96 23.8933 9.33334 23.3333 9.33334ZM20.5333 7.46667H22.4V5.6H20.5333V7.46667Z" fill="white"/>
<path d="M0.933333 13.2667H55.0667C55.3921 13.2667 55.6789 13.1573 55.8848 12.9514C56.0906 12.7455 56.2 12.4588 56.2 12.1333V4.2C56.2 1.75621 54.2438 -0.2 51.8 -0.2H4.2C1.75621 -0.2 -0.2 1.75621 -0.2 4.2V12.1333C-0.2 12.4588 -0.0906439 12.7455 0.115245 12.9514C0.321134 13.1573 0.607884 13.2667 0.933333 13.2667ZM53.9333 4.2V11H2.06667V4.2C2.06667 3.00379 3.00379 2.06667 4.2 2.06667H51.8C52.9962 2.06667 53.9333 3.00379 53.9333 4.2Z" fill="white" stroke="white" stroke-width="0.4"/>
<path d="M23.9982 26.7241C23.6137 26.378 23.0201 26.4091 22.6744 26.7937L18.5533 31.3725C18.2322 31.7296 18.2322 32.2703 18.5533 32.6274L22.6744 37.2063C22.8593 37.412 23.1147 37.5163 23.3714 37.5163C23.5948 37.5163 23.8191 37.437 23.9982 37.2758C24.3831 36.9292 24.4142 36.3365 24.0678 35.9514L20.5113 32L24.0678 28.0486C24.4142 27.6634 24.3831 27.0708 23.9982 26.7241ZM37.4467 31.3725L33.3256 26.7937C32.9796 26.4091 32.3869 26.378 32.0018 26.7241C31.617 27.0708 31.5858 27.6634 31.9322 28.0485L35.4887 32L31.9322 35.9514C31.5858 36.3365 31.617 36.9292 32.0018 37.2758C32.1809 37.437 32.4052 37.5163 32.6286 37.5163C32.8853 37.5163 33.1407 37.412 33.3256 37.2063L37.4467 32.6274C37.7678 32.2704 37.7678 31.7296 37.4467 31.3725ZM30.1152 23.3842C29.611 23.2622 29.1047 23.5686 28.9815 24.0715L25.1979 39.4817C25.0743 39.9846 25.3819 40.4918 25.8848 40.6157C25.9599 40.634 26.035 40.6425 26.1088 40.6425C26.5306 40.6425 26.9136 40.3563 27.0186 39.9284L30.8021 24.5183C30.9257 24.0153 30.6181 23.5081 30.1152 23.3842Z" fill="white"/>
</g>
<defs>
<clipPath id="clip0_19_2">
<rect width="56" height="56" fill="white"/>
</clipPath>
</defs>
</svg>
