<svg width="316" height="267" viewBox="0 0 316 267" fill="none" xmlns="http://www.w3.org/2000/svg">
<path d="M60.21 63.24C60.21 74.1 57.24 82.29 51.3 87.81C45.42 93.27 37.2 96 26.64 96H8.73V31.74H28.53C35.01 31.74 40.62 32.94 45.36 35.34C50.1 37.74 53.76 41.28 56.34 45.96C58.92 50.58 60.21 56.34 60.21 63.24ZM51.66 63.51C51.66 54.93 49.53 48.66 45.27 44.7C41.07 40.68 35.1 38.67 27.36 38.67H16.83V89.07H25.56C42.96 89.07 51.66 80.55 51.66 63.51ZM130.542 63.78C130.542 70.44 129.402 76.26 127.122 81.24C124.902 86.16 121.602 90 117.222 92.76C112.842 95.52 107.412 96.9 100.932 96.9C94.2722 96.9 88.7222 95.52 84.2822 92.76C79.9022 90 76.6322 86.13 74.4722 81.15C72.3122 76.17 71.2322 70.35 71.2322 63.69C71.2322 57.09 72.3122 51.33 74.4722 46.41C76.6322 41.49 79.9022 37.65 84.2822 34.89C88.7222 32.13 94.3022 30.75 101.022 30.75C107.442 30.75 112.842 32.13 117.222 34.89C121.602 37.59 124.902 41.43 127.122 46.41C129.402 51.33 130.542 57.12 130.542 63.78ZM79.7822 63.78C79.7822 71.88 81.4922 78.27 84.9122 82.95C88.3322 87.57 93.6722 89.88 100.932 89.88C108.252 89.88 113.592 87.57 116.952 82.95C120.312 78.27 121.992 71.88 121.992 63.78C121.992 55.68 120.312 49.35 116.952 44.79C113.592 40.17 108.282 37.86 101.022 37.86C93.7622 37.86 88.3922 40.17 84.9122 44.79C81.4922 49.35 79.7822 55.68 79.7822 63.78ZM183.347 96L175.607 76.11H150.137L142.487 96H134.297L159.407 31.47H166.697L191.717 96H183.347ZM165.977 49.47C165.797 48.99 165.497 48.12 165.077 46.86C164.657 45.6 164.237 44.31 163.817 42.99C163.457 41.61 163.157 40.56 162.917 39.84C162.497 41.7 162.017 43.53 161.477 45.33C160.937 47.07 160.487 48.45 160.127 49.47L152.837 68.91H173.177L165.977 49.47ZM251.447 96H241.997L207.617 42.63H207.257C207.377 44.73 207.527 47.34 207.707 50.46C207.887 53.58 207.977 56.79 207.977 60.09V96H200.507V31.74H209.867L244.157 84.93H244.517C244.457 83.97 244.367 82.53 244.247 80.61C244.187 78.69 244.097 76.59 243.977 74.31C243.917 72.03 243.887 69.93 243.887 68.01V31.74H251.447V96Z" fill="white"/>
<path d="M162.07 213H153.97V155.85H133.9V148.74H182.05V155.85H162.07V213ZM225.732 213L217.992 193.11H192.522L184.872 213H176.682L201.792 148.47H209.082L234.102 213H225.732ZM208.362 166.47C208.182 165.99 207.882 165.12 207.462 163.86C207.042 162.6 206.622 161.31 206.202 159.99C205.842 158.61 205.542 157.56 205.302 156.84C204.882 158.7 204.402 160.53 203.862 162.33C203.322 164.07 202.872 165.45 202.512 166.47L195.222 185.91H215.562L208.362 166.47ZM271.242 213L250.092 156.66H249.732C249.912 158.52 250.062 161.04 250.182 164.22C250.302 167.34 250.362 170.61 250.362 174.03V213H242.892V148.74H254.862L274.662 201.39H275.022L295.182 148.74H307.062V213H299.052V173.49C299.052 170.37 299.112 167.28 299.232 164.22C299.412 161.16 299.562 158.67 299.682 156.75H299.322L277.902 213H271.242Z" fill="white"/>
</svg>
