<svg width="56" height="56" viewBox="0 0 56 56" fill="none" xmlns="http://www.w3.org/2000/svg">
<path d="M17.7333 43.8667H12.1333C11.5733 43.8667 11.2 43.4933 11.2 42.9333V37.3333C11.2 36.7733 11.5733 36.4 12.1333 36.4H17.7333C18.2933 36.4 18.6666 36.7733 18.6666 37.3333V42.9333C18.6666 43.4933 18.2933 43.8667 17.7333 43.8667ZM13.0666 42H16.8V38.2667H13.0666V42Z" fill="white"/>
<path d="M30.8001 30.8H25.2001C24.6401 30.8 24.2667 30.4267 24.2667 29.8667V24.2667C24.2667 23.7067 24.6401 23.3333 25.2001 23.3333H30.8001C31.3601 23.3333 31.7334 23.7067 31.7334 24.2667V29.8667C31.7334 30.4267 31.3601 30.8 30.8001 30.8ZM26.1334 28.9333H29.8667V25.2H26.1334V28.9333Z" fill="white"/>
<path d="M14.9333 38.2667C14.3733 38.2667 14 37.8933 14 37.3333C14 31.1733 19.04 26.1333 25.2 26.1333C25.76 26.1333 26.1333 26.5067 26.1333 27.0667C26.1333 27.6267 25.76 28 25.2 28C20.0667 28 15.8667 32.2 15.8667 37.3333C15.8667 37.8933 15.4933 38.2667 14.9333 38.2667Z" fill="white"/>
<path d="M43.8667 43.8667H38.2667C37.7067 43.8667 37.3334 43.4933 37.3334 42.9333V37.3333C37.3334 36.7733 37.7067 36.4 38.2667 36.4H43.8667C44.4267 36.4 44.8 36.7733 44.8 37.3333V42.9333C44.8 43.4933 44.4267 43.8667 43.8667 43.8667ZM39.2 42H42.9334V38.2667H39.2V42Z" fill="white"/>
<path d="M41.0667 38.2667C40.5067 38.2667 40.1334 37.8933 40.1334 37.3333C40.1334 32.2 35.9334 28 30.8 28C30.24 28 29.8667 27.6267 29.8667 27.0667C29.8667 26.5067 30.24 26.1333 30.8 26.1333C36.96 26.1333 42 31.1733 42 37.3333C42 37.8933 41.6267 38.2667 41.0667 38.2667Z" fill="white"/>
<path d="M25.2 28H12.1333C11.5733 28 11.2 27.6267 11.2 27.0667C11.2 26.5067 11.5733 26.1333 12.1333 26.1333H25.2C25.76 26.1333 26.1333 26.5067 26.1333 27.0667C26.1333 27.6267 25.76 28 25.2 28Z" fill="white"/>
<path d="M43.8667 28H30.8C30.24 28 29.8667 27.6267 29.8667 27.0667C29.8667 26.5067 30.24 26.1333 30.8 26.1333H43.8667C44.4267 26.1333 44.8 26.5067 44.8 27.0667C44.8 27.6267 44.4267 28 43.8667 28Z" fill="white"/>
<path d="M51.8 56H4.2C1.86667 56 0 54.1333 0 51.8V4.2C0 1.86667 1.86667 0 4.2 0H51.8C54.1333 0 56 1.86667 56 4.2V51.8C56 54.1333 54.1333 56 51.8 56ZM4.2 1.86667C2.89333 1.86667 1.86667 2.89333 1.86667 4.2V51.8C1.86667 53.1067 2.89333 54.1333 4.2 54.1333H51.8C53.1067 54.1333 54.1333 53.1067 54.1333 51.8V4.2C54.1333 2.89333 53.1067 1.86667 51.8 1.86667H4.2Z" fill="white"/>
<path d="M8.39994 9.33334H4.66661C4.10661 9.33334 3.73328 8.96 3.73328 8.4V4.66667C3.73328 4.10667 4.10661 3.73334 4.66661 3.73334H8.39994C8.95994 3.73334 9.33328 4.10667 9.33328 4.66667V8.4C9.33328 8.96 8.95994 9.33334 8.39994 9.33334ZM5.59994 7.46667H7.46661V5.6H5.59994V7.46667Z" fill="white"/>
<path d="M15.8666 9.33334H12.1333C11.5733 9.33334 11.2 8.96 11.2 8.4V4.66667C11.2 4.10667 11.5733 3.73334 12.1333 3.73334H15.8666C16.4266 3.73334 16.8 4.10667 16.8 4.66667V8.4C16.8 8.96 16.4266 9.33334 15.8666 9.33334ZM13.0666 7.46667H14.9333V5.6H13.0666V7.46667Z" fill="white"/>
<path d="M23.3333 9.33334H19.6C19.04 9.33334 18.6666 8.96 18.6666 8.4V4.66667C18.6666 4.10667 19.04 3.73334 19.6 3.73334H23.3333C23.8933 3.73334 24.2666 4.10667 24.2666 4.66667V8.4C24.2666 8.96 23.8933 9.33334 23.3333 9.33334ZM20.5333 7.46667H22.4V5.6H20.5333V7.46667Z" fill="white"/>
<path d="M55.0667 13.0667H0.933333C0.373333 13.0667 0 12.6933 0 12.1333V4.2C0 1.86667 1.86667 0 4.2 0H51.8C54.1333 0 56 1.86667 56 4.2V12.1333C56 12.6933 55.6267 13.0667 55.0667 13.0667ZM1.86667 11.2H54.1333V4.2C54.1333 2.89333 53.1067 1.86667 51.8 1.86667H4.2C2.89333 1.86667 1.86667 2.89333 1.86667 4.2V11.2Z" fill="white"/>
<path d="M51.3333 52.2667H4.66661C4.10661 52.2667 3.73328 51.8933 3.73328 51.3333V15.8667C3.73328 15.3067 4.10661 14.9333 4.66661 14.9333H51.3333C51.8933 14.9333 52.2666 15.3067 52.2666 15.8667V51.3333C52.2666 51.8933 51.8933 52.2667 51.3333 52.2667ZM5.59994 50.4H50.3999V16.8H5.59994V50.4Z" fill="white"/>
<path d="M8.40001 24.2667C7.84001 24.2667 7.46667 23.8933 7.46667 23.3333V19.6C7.46667 19.04 7.84001 18.6667 8.40001 18.6667H12.1333C12.6933 18.6667 13.0667 19.04 13.0667 19.6C13.0667 20.16 12.6933 20.5333 12.1333 20.5333H9.33334V23.3333C9.33334 23.8933 8.96001 24.2667 8.40001 24.2667Z" fill="white"/>
<path d="M47.6 48.5333H43.8667C43.3067 48.5333 42.9333 48.16 42.9333 47.6C42.9333 47.04 43.3067 46.6667 43.8667 46.6667H46.6667V43.8667C46.6667 43.3067 47.04 42.9333 47.6 42.9333C48.16 42.9333 48.5333 43.3067 48.5333 43.8667V47.6C48.5333 48.16 48.16 48.5333 47.6 48.5333Z" fill="white"/>
<path d="M29.8666 43.8667H26.1333C25.5733 43.8667 25.2 43.4933 25.2 42.9333C25.2 41.9067 23.4266 40.1333 22.4 40.1333C22.0266 40.1333 21.6533 39.9467 21.56 39.5733C21.4666 39.2 21.4666 38.8267 21.7466 38.5467L27.3466 32.9467C27.72 32.5733 28.28 32.5733 28.6533 32.9467L34.2533 38.5467C34.5333 38.8267 34.6266 39.2 34.44 39.5733C34.2533 39.9467 33.9733 40.1333 33.6 40.1333C32.5733 40.1333 30.8 41.9067 30.8 42.9333C30.8 43.4933 30.4266 43.8667 29.8666 43.8667ZM26.88 42H29.0266C29.4 40.7867 30.52 39.48 31.8266 38.8267L28 34.9067L24.1733 38.7333C25.3866 39.48 26.5066 40.7867 26.88 42Z" fill="white"/>
<path d="M29.8666 47.6H26.1333C25.5733 47.6 25.2 47.2267 25.2 46.6667V42.9333C25.2 42.3733 25.5733 42 26.1333 42H29.8666C30.4266 42 30.8 42.3733 30.8 42.9333V46.6667C30.8 47.2267 30.4266 47.6 29.8666 47.6ZM27.0666 45.7333H28.9333V43.8667H27.0666V45.7333Z" fill="white"/>
<path d="M28 38.2667C27.44 38.2667 27.0667 37.8933 27.0667 37.3333V33.6C27.0667 33.04 27.44 32.6667 28 32.6667C28.56 32.6667 28.9333 33.04 28.9333 33.6V37.3333C28.9333 37.8933 28.56 38.2667 28 38.2667Z" fill="white"/>
</svg>
